solid OpenSCAD_Model
  facet normal 0.938191 -0.346118 0
    outer loop
      vertex 14.2663 -5.5 4
      vertex 14.5512 -4.72796 2.5
      vertex 14.5512 -4.72796 4
    endloop
  endfacet
  facet normal 0.938191 -0.346118 0
    outer loop
      vertex 14.5512 -4.72796 2.5
      vertex 14.2663 -5.5 4
      vertex 14.2663 -5.5 2.5
    endloop
  endfacet
  facet normal 0.993069 -0.117537 0
    outer loop
      vertex 15.1116 -2.39345 4
      vertex 15.2528 -1.20042 2.5
      vertex 15.2528 -1.20042 4
    endloop
  endfacet
  facet normal 0.993069 -0.117537 0
    outer loop
      vertex 15.2528 -1.20042 2.5
      vertex 15.1116 -2.39345 4
      vertex 15.1116 -2.39345 2.5
    endloop
  endfacet
  facet normal 0.993069 0.117537 0
    outer loop
      vertex 15.2528 1.20042 4
      vertex 15.1116 2.39345 2.5
      vertex 15.1116 2.39345 4
    endloop
  endfacet
  facet normal 0.993069 0.117537 0
    outer loop
      vertex 15.1116 2.39345 2.5
      vertex 15.2528 1.20042 4
      vertex 15.2528 1.20042 2.5
    endloop
  endfacet
  facet normal 0.962455 0.27144 0
    outer loop
      vertex 14.8773 3.57171 4
      vertex 14.5512 4.72796 2.5
      vertex 14.5512 4.72796 4
    endloop
  endfacet
  facet normal 0.962455 0.27144 0
    outer loop
      vertex 14.5512 4.72796 2.5
      vertex 14.8773 3.57171 4
      vertex 14.8773 3.57171 2.5
    endloop
  endfacet
  facet normal 0.938191 0.346118 0
    outer loop
      vertex 14.5512 4.72796 4
      vertex 14.2663 5.5 2.5
      vertex 14.2663 5.5 4
    endloop
  endfacet
  facet normal 0.938191 0.346118 0
    outer loop
      vertex 14.2663 5.5 2.5
      vertex 14.5512 4.72796 4
      vertex 14.5512 4.72796 2.5
    endloop
  endfacet
  facet normal -0.999229 0.0392599 0
    outer loop
      vertex -15.3 0 2.5
      vertex -15.2528 1.20042 4
      vertex -15.2528 1.20042 2.5
    endloop
  endfacet
  facet normal -0.999229 0.0392599 0
    outer loop
      vertex -15.2528 1.20042 4
      vertex -15.3 0 2.5
      vertex -15.3 0 4
    endloop
  endfacet
  facet normal -0.938191 0.346118 0
    outer loop
      vertex -14.5512 4.72796 2.5
      vertex -14.2663 5.5 4
      vertex -14.2663 5.5 2.5
    endloop
  endfacet
  facet normal -0.938191 0.346118 0
    outer loop
      vertex -14.2663 5.5 4
      vertex -14.5512 4.72796 2.5
      vertex -14.5512 4.72796 4
    endloop
  endfacet
  facet normal -0.980785 0.195091 0
    outer loop
      vertex -15.1116 2.39345 2.5
      vertex -14.8773 3.57171 4
      vertex -14.8773 3.57171 2.5
    endloop
  endfacet
  facet normal -0.980785 0.195091 0
    outer loop
      vertex -14.8773 3.57171 4
      vertex -15.1116 2.39345 2.5
      vertex -15.1116 2.39345 4
    endloop
  endfacet
  facet normal 0.999229 0.0392599 0
    outer loop
      vertex 15.3 0 4
      vertex 15.2528 1.20042 2.5
      vertex 15.2528 1.20042 4
    endloop
  endfacet
  facet normal 0.999229 0.0392599 0
    outer loop
      vertex 15.2528 1.20042 2.5
      vertex 15.3 0 4
      vertex 15.3 0 2.5
    endloop
  endfacet
  facet normal 0.962455 -0.27144 0
    outer loop
      vertex 14.5512 -4.72796 4
      vertex 14.8773 -3.57171 2.5
      vertex 14.8773 -3.57171 4
    endloop
  endfacet
  facet normal 0.962455 -0.27144 0
    outer loop
      vertex 14.8773 -3.57171 2.5
      vertex 14.5512 -4.72796 4
      vertex 14.5512 -4.72796 2.5
    endloop
  endfacet
  facet normal -0.999229 -0.0392599 0
    outer loop
      vertex -15.2528 -1.20042 2.5
      vertex -15.3 0 4
      vertex -15.3 0 2.5
    endloop
  endfacet
  facet normal -0.999229 -0.0392599 0
    outer loop
      vertex -15.3 0 4
      vertex -15.2528 -1.20042 2.5
      vertex -15.2528 -1.20042 4
    endloop
  endfacet
  facet normal 0 0 -1
    outer loop
      vertex -3.5 -3.75 0
      vertex 12.5 0 0
      vertex 12.4615 -0.980739 0
    endloop
  endfacet
  facet normal 0 0 -1
    outer loop
      vertex -3.5 -3.75 0
      vertex 12.4615 -0.980739 0
      vertex 12.3461 -1.95543 0
    endloop
  endfacet
  facet normal 0 0 -1
    outer loop
      vertex -3.5 3.75 0
      vertex 12.5 0 0
      vertex -3.5 -3.75 0
    endloop
  endfacet
  facet normal 0 0 -1
    outer loop
      vertex -3.5 -3.75 0
      vertex 12.3461 -1.95543 0
      vertex 12.1546 -2.91807 0
    endloop
  endfacet
  facet normal 0 0 -1
    outer loop
      vertex 12.5 0 0
      vertex -3.5 3.75 0
      vertex 12.4615 0.980739 0
    endloop
  endfacet
  facet normal 0 0 -1
    outer loop
      vertex -3.5 -3.75 0
      vertex 12.1546 -2.91807 0
      vertex 11.8882 -3.86271 0
    endloop
  endfacet
  facet normal 0 0 -1
    outer loop
      vertex 12.4615 0.980739 0
      vertex -3.5 3.75 0
      vertex 12.3461 1.95543 0
    endloop
  endfacet
  facet normal 0 0 -1
    outer loop
      vertex -3.5 -3.75 0
      vertex 11.8882 -3.86271 0
      vertex 11.5485 -4.78354 0
    endloop
  endfacet
  facet normal 0 0 -1
    outer loop
      vertex 12.3461 1.95543 0
      vertex -3.5 3.75 0
      vertex 12.1546 2.91807 0
    endloop
  endfacet
  facet normal 0 0 -1
    outer loop
      vertex -3.5 -3.75 0
      vertex 11.5485 -4.78354 0
      vertex 11.2182 -5.5 0
    endloop
  endfacet
  facet normal 0 0 -1
    outer loop
      vertex 12.1546 2.91807 0
      vertex -3.5 3.75 0
      vertex 11.8882 3.86271 0
    endloop
  endfacet
  facet normal -0 0 -1
    outer loop
      vertex 11.8882 3.86271 0
      vertex -3.5 3.75 0
      vertex 11.5485 4.78354 0
    endloop
  endfacet
  facet normal 0 0 -1
    outer loop
      vertex -11.2182 -5.5 0
      vertex -3.5 -3.75 0
      vertex 11.2182 -5.5 0
    endloop
  endfacet
  facet normal 0 0 -1
    outer loop
      vertex -11.5485 -4.78354 0
      vertex -4 -3.75 0
      vertex -11.2182 -5.5 0
    endloop
  endfacet
  facet normal -0 0 -1
    outer loop
      vertex -3.5 -3.75 0
      vertex -11.2182 -5.5 0
      vertex -4 -3.75 0
    endloop
  endfacet
  facet normal -0 0 -1
    outer loop
      vertex 11.5485 4.78354 0
      vertex -3.5 3.75 0
      vertex 11.2182 5.5 0
    endloop
  endfacet
  facet normal 0 0 -1
    outer loop
      vertex -11.2182 5.5 0
      vertex -3.5 3.75 0
      vertex -4 3.75 0
    endloop
  endfacet
  facet normal 0 0 -1
    outer loop
      vertex -3.5 3.75 0
      vertex -11.2182 5.5 0
      vertex 11.2182 5.5 0
    endloop
  endfacet
  facet normal 0 0 -1
    outer loop
      vertex -11.8882 -3.86271 0
      vertex -4 -3.75 0
      vertex -11.5485 -4.78354 0
    endloop
  endfacet
  facet normal 0 0 -1
    outer loop
      vertex -12.1546 -2.91807 0
      vertex -4 -3.75 0
      vertex -11.8882 -3.86271 0
    endloop
  endfacet
  facet normal 0 0 -1
    outer loop
      vertex -4 3.75 0
      vertex -11.5485 4.78354 0
      vertex -11.2182 5.5 0
    endloop
  endfacet
  facet normal 0 0 -1
    outer loop
      vertex -12.3461 -1.95543 0
      vertex -4 -3.75 0
      vertex -12.1546 -2.91807 0
    endloop
  endfacet
  facet normal 0 0 -1
    outer loop
      vertex -4 3.75 0
      vertex -11.8882 3.86271 0
      vertex -11.5485 4.78354 0
    endloop
  endfacet
  facet normal 0 0 -1
    outer loop
      vertex -12.4615 -0.980739 0
      vertex -4 -3.75 0
      vertex -12.3461 -1.95543 0
    endloop
  endfacet
  facet normal -0 0 -1
    outer loop
      vertex -4 3.75 0
      vertex -12.1546 2.91807 0
      vertex -11.8882 3.86271 0
    endloop
  endfacet
  facet normal 0 0 -1
    outer loop
      vertex -12.5 0 0
      vertex -4 -3.75 0
      vertex -12.4615 -0.980739 0
    endloop
  endfacet
  facet normal 0 0 -1
    outer loop
      vertex -4 3.75 0
      vertex -12.3461 1.95543 0
      vertex -12.1546 2.91807 0
    endloop
  endfacet
  facet normal 0 0 -1
    outer loop
      vertex -4 -3.75 0
      vertex -12.5 0 0
      vertex -4 3.75 0
    endloop
  endfacet
  facet normal 0 0 -1
    outer loop
      vertex -4 3.75 0
      vertex -12.4615 0.980739 0
      vertex -12.3461 1.95543 0
    endloop
  endfacet
  facet normal 0 0 -1
    outer loop
      vertex -4 3.75 0
      vertex -12.5 0 0
      vertex -12.4615 0.980739 0
    endloop
  endfacet
  facet normal 0.980785 0.195091 0
    outer loop
      vertex 15.1116 2.39345 4
      vertex 14.8773 3.57171 2.5
      vertex 14.8773 3.57171 4
    endloop
  endfacet
  facet normal 0.980785 0.195091 0
    outer loop
      vertex 14.8773 3.57171 2.5
      vertex 15.1116 2.39345 4
      vertex 15.1116 2.39345 2.5
    endloop
  endfacet
  facet normal -0.993069 0.117537 0
    outer loop
      vertex -15.2528 1.20042 2.5
      vertex -15.1116 2.39345 4
      vertex -15.1116 2.39345 2.5
    endloop
  endfacet
  facet normal -0.993069 0.117537 0
    outer loop
      vertex -15.1116 2.39345 4
      vertex -15.2528 1.20042 2.5
      vertex -15.2528 1.20042 4
    endloop
  endfacet
  facet normal -0.962455 0.27144 0
    outer loop
      vertex -14.8773 3.57171 2.5
      vertex -14.5512 4.72796 4
      vertex -14.5512 4.72796 2.5
    endloop
  endfacet
  facet normal -0.962455 0.27144 0
    outer loop
      vertex -14.5512 4.72796 4
      vertex -14.8773 3.57171 2.5
      vertex -14.8773 3.57171 4
    endloop
  endfacet
  facet normal 0.999229 -0.0392599 0
    outer loop
      vertex 15.2528 -1.20042 4
      vertex 15.3 0 2.5
      vertex 15.3 0 4
    endloop
  endfacet
  facet normal 0.999229 -0.0392599 0
    outer loop
      vertex 15.3 0 2.5
      vertex 15.2528 -1.20042 4
      vertex 15.2528 -1.20042 2.5
    endloop
  endfacet
  facet normal 0.980785 -0.195091 0
    outer loop
      vertex 14.8773 -3.57171 4
      vertex 15.1116 -2.39345 2.5
      vertex 15.1116 -2.39345 4
    endloop
  endfacet
  facet normal 0.980785 -0.195091 0
    outer loop
      vertex 15.1116 -2.39345 2.5
      vertex 14.8773 -3.57171 4
      vertex 14.8773 -3.57171 2.5
    endloop
  endfacet
  facet normal -0.980785 -0.195091 0
    outer loop
      vertex -14.8773 -3.57171 2.5
      vertex -15.1116 -2.39345 4
      vertex -15.1116 -2.39345 2.5
    endloop
  endfacet
  facet normal -0.980785 -0.195091 0
    outer loop
      vertex -15.1116 -2.39345 4
      vertex -14.8773 -3.57171 2.5
      vertex -14.8773 -3.57171 4
    endloop
  endfacet
  facet normal -0.938191 -0.346118 0
    outer loop
      vertex -14.2663 -5.5 2.5
      vertex -14.5512 -4.72796 4
      vertex -14.5512 -4.72796 2.5
    endloop
  endfacet
  facet normal -0.938191 -0.346118 0
    outer loop
      vertex -14.5512 -4.72796 4
      vertex -14.2663 -5.5 2.5
      vertex -14.2663 -5.5 4
    endloop
  endfacet
  facet normal -0.993069 -0.117537 0
    outer loop
      vertex -15.1116 -2.39345 2.5
      vertex -15.2528 -1.20042 4
      vertex -15.2528 -1.20042 2.5
    endloop
  endfacet
  facet normal -0.993069 -0.117537 0
    outer loop
      vertex -15.2528 -1.20042 4
      vertex -15.1116 -2.39345 2.5
      vertex -15.1116 -2.39345 4
    endloop
  endfacet
  facet normal -0.962455 -0.27144 0
    outer loop
      vertex -14.5512 -4.72796 2.5
      vertex -14.8773 -3.57171 4
      vertex -14.8773 -3.57171 2.5
    endloop
  endfacet
  facet normal -0.962455 -0.27144 0
    outer loop
      vertex -14.8773 -3.57171 4
      vertex -14.5512 -4.72796 2.5
      vertex -14.5512 -4.72796 4
    endloop
  endfacet
  facet normal 0 0 1
    outer loop
      vertex -3.5 3.75 4
      vertex 15.3 0 4
      vertex 15.2528 1.20042 4
    endloop
  endfacet
  facet normal 0 0 1
    outer loop
      vertex -3.5 3.75 4
      vertex 15.2528 1.20042 4
      vertex 15.1116 2.39345 4
    endloop
  endfacet
  facet normal 0 0 1
    outer loop
      vertex -3.5 -3.75 4
      vertex 15.3 0 4
      vertex -3.5 3.75 4
    endloop
  endfacet
  facet normal 0 0 1
    outer loop
      vertex -3.5 3.75 4
      vertex 15.1116 2.39345 4
      vertex 14.8773 3.57171 4
    endloop
  endfacet
  facet normal 0 0 1
    outer loop
      vertex 15.3 0 4
      vertex -3.5 -3.75 4
      vertex 15.2528 -1.20042 4
    endloop
  endfacet
  facet normal -0 0 1
    outer loop
      vertex -3.5 3.75 4
      vertex 14.8773 3.57171 4
      vertex 14.5512 4.72796 4
    endloop
  endfacet
  facet normal 0 0 1
    outer loop
      vertex 15.2528 -1.20042 4
      vertex -3.5 -3.75 4
      vertex 15.1116 -2.39345 4
    endloop
  endfacet
  facet normal 0 0 1
    outer loop
      vertex -3.5 3.75 4
      vertex 14.5512 4.72796 4
      vertex 14.2663 5.5 4
    endloop
  endfacet
  facet normal 0 0 1
    outer loop
      vertex 15.1116 -2.39345 4
      vertex -3.5 -3.75 4
      vertex 14.8773 -3.57171 4
    endloop
  endfacet
  facet normal 0 0 1
    outer loop
      vertex 14.8773 -3.57171 4
      vertex -3.5 -3.75 4
      vertex 14.5512 -4.72796 4
    endloop
  endfacet
  facet normal -0 0 1
    outer loop
      vertex -14.2663 5.5 4
      vertex -3.5 3.75 4
      vertex 14.2663 5.5 4
    endloop
  endfacet
  facet normal -0 0 1
    outer loop
      vertex -14.5512 4.72796 4
      vertex -4 3.75 4
      vertex -14.2663 5.5 4
    endloop
  endfacet
  facet normal 0 0 1
    outer loop
      vertex -3.5 3.75 4
      vertex -14.2663 5.5 4
      vertex -4 3.75 4
    endloop
  endfacet
  facet normal 0 0 1
    outer loop
      vertex 14.5512 -4.72796 4
      vertex -3.5 -3.75 4
      vertex 14.2663 -5.5 4
    endloop
  endfacet
  facet normal 0 0 1
    outer loop
      vertex -14.2663 -5.5 4
      vertex -3.5 -3.75 4
      vertex -4 -3.75 4
    endloop
  endfacet
  facet normal 0 0 1
    outer loop
      vertex -3.5 -3.75 4
      vertex -14.2663 -5.5 4
      vertex 14.2663 -5.5 4
    endloop
  endfacet
  facet normal 0 0 1
    outer loop
      vertex -14.8773 3.57171 4
      vertex -4 3.75 4
      vertex -14.5512 4.72796 4
    endloop
  endfacet
  facet normal 0 0 1
    outer loop
      vertex -15.1116 2.39345 4
      vertex -4 3.75 4
      vertex -14.8773 3.57171 4
    endloop
  endfacet
  facet normal 0 0 1
    outer loop
      vertex -15.2528 1.20042 4
      vertex -4 3.75 4
      vertex -15.1116 2.39345 4
    endloop
  endfacet
  facet normal 0 -0 1
    outer loop
      vertex -14.5512 -4.72796 4
      vertex -4 -3.75 4
      vertex -14.8773 -3.57171 4
    endloop
  endfacet
  facet normal 0 0 1
    outer loop
      vertex -4 -3.75 4
      vertex -14.5512 -4.72796 4
      vertex -14.2663 -5.5 4
    endloop
  endfacet
  facet normal 0 0 1
    outer loop
      vertex -15.3 0 4
      vertex -4 3.75 4
      vertex -15.2528 1.20042 4
    endloop
  endfacet
  facet normal 0 0 1
    outer loop
      vertex -4 -3.75 4
      vertex -15.1116 -2.39345 4
      vertex -14.8773 -3.57171 4
    endloop
  endfacet
  facet normal 0 0 1
    outer loop
      vertex -4 3.75 4
      vertex -15.3 0 4
      vertex -4 -3.75 4
    endloop
  endfacet
  facet normal 0 0 1
    outer loop
      vertex -4 -3.75 4
      vertex -15.2528 -1.20042 4
      vertex -15.1116 -2.39345 4
    endloop
  endfacet
  facet normal 0 0 1
    outer loop
      vertex -4 -3.75 4
      vertex -15.3 0 4
      vertex -15.2528 -1.20042 4
    endloop
  endfacet
  facet normal 0 -1 0
    outer loop
      vertex -11.2182 -5.5 0
      vertex 11.2182 -5.5 2.5
      vertex -11.2182 -5.5 2.5
    endloop
  endfacet
  facet normal 0 -1 -0
    outer loop
      vertex 11.2182 -5.5 2.5
      vertex -11.2182 -5.5 0
      vertex 11.2182 -5.5 0
    endloop
  endfacet
  facet normal 0 -1 0
    outer loop
      vertex -11.2182 -5.5 2.5
      vertex -14.2663 -5.5 4
      vertex -14.2663 -5.5 2.5
    endloop
  endfacet
  facet normal 0 -1 0
    outer loop
      vertex -14.2663 -5.5 4
      vertex -11.2182 -5.5 2.5
      vertex 14.2663 -5.5 4
    endloop
  endfacet
  facet normal 0 -1 0
    outer loop
      vertex 11.2182 -5.5 2.5
      vertex 14.2663 -5.5 4
      vertex -11.2182 -5.5 2.5
    endloop
  endfacet
  facet normal 0 -1 -0
    outer loop
      vertex 14.2663 -5.5 4
      vertex 11.2182 -5.5 2.5
      vertex 14.2663 -5.5 2.5
    endloop
  endfacet
  facet normal 0 1 -0
    outer loop
      vertex 11.2182 5.5 0
      vertex -11.2182 5.5 2.5
      vertex 11.2182 5.5 2.5
    endloop
  endfacet
  facet normal 0 1 0
    outer loop
      vertex -11.2182 5.5 2.5
      vertex 11.2182 5.5 0
      vertex -11.2182 5.5 0
    endloop
  endfacet
  facet normal 0 1 0
    outer loop
      vertex 11.2182 5.5 2.5
      vertex 14.2663 5.5 4
      vertex 14.2663 5.5 2.5
    endloop
  endfacet
  facet normal 0 1 0
    outer loop
      vertex 14.2663 5.5 4
      vertex 11.2182 5.5 2.5
      vertex -14.2663 5.5 4
    endloop
  endfacet
  facet normal 0 1 -0
    outer loop
      vertex -11.2182 5.5 2.5
      vertex -14.2663 5.5 4
      vertex 11.2182 5.5 2.5
    endloop
  endfacet
  facet normal 0 1 0
    outer loop
      vertex -14.2663 5.5 4
      vertex -11.2182 5.5 2.5
      vertex -14.2663 5.5 2.5
    endloop
  endfacet
  facet normal 1 -0 0
    outer loop
      vertex -4 -3.75 4
      vertex -4 3.75 0
      vertex -4 3.75 4
    endloop
  endfacet
  facet normal 1 0 0
    outer loop
      vertex -4 3.75 0
      vertex -4 -3.75 4
      vertex -4 -3.75 0
    endloop
  endfacet
  facet normal -1 0 0
    outer loop
      vertex -3.5 -3.75 0
      vertex -3.5 3.75 4
      vertex -3.5 3.75 0
    endloop
  endfacet
  facet normal -1 -0 0
    outer loop
      vertex -3.5 3.75 4
      vertex -3.5 -3.75 0
      vertex -3.5 -3.75 4
    endloop
  endfacet
  facet normal 0 -1 0
    outer loop
      vertex -4 3.75 0
      vertex -3.5 3.75 4
      vertex -4 3.75 4
    endloop
  endfacet
  facet normal 0 -1 -0
    outer loop
      vertex -3.5 3.75 4
      vertex -4 3.75 0
      vertex -3.5 3.75 0
    endloop
  endfacet
  facet normal 0 1 -0
    outer loop
      vertex -3.5 -3.75 0
      vertex -4 -3.75 4
      vertex -3.5 -3.75 4
    endloop
  endfacet
  facet normal 0 1 0
    outer loop
      vertex -4 -3.75 4
      vertex -3.5 -3.75 0
      vertex -4 -3.75 0
    endloop
  endfacet
  facet normal -0 0 -1
    outer loop
      vertex -12.1546 -2.91807 2.5
      vertex -14.8773 -3.57171 2.5
      vertex -12.3461 -1.95543 2.5
    endloop
  endfacet
  facet normal 0 0 -1
    outer loop
      vertex -14.8773 -3.57171 2.5
      vertex -12.1546 -2.91807 2.5
      vertex -14.5512 -4.72796 2.5
    endloop
  endfacet
  facet normal -0 0 -1
    outer loop
      vertex -11.8882 -3.86271 2.5
      vertex -14.5512 -4.72796 2.5
      vertex -12.1546 -2.91807 2.5
    endloop
  endfacet
  facet normal 0 0 -1
    outer loop
      vertex -14.5512 -4.72796 2.5
      vertex -11.8882 -3.86271 2.5
      vertex -14.2663 -5.5 2.5
    endloop
  endfacet
  facet normal -0 0 -1
    outer loop
      vertex -11.5485 -4.78354 2.5
      vertex -14.2663 -5.5 2.5
      vertex -11.8882 -3.86271 2.5
    endloop
  endfacet
  facet normal 0 0 -1
    outer loop
      vertex -14.2663 -5.5 2.5
      vertex -11.5485 -4.78354 2.5
      vertex -11.2182 -5.5 2.5
    endloop
  endfacet
  facet normal 0 0 -1
    outer loop
      vertex -15.1116 -2.39345 2.5
      vertex -12.3461 -1.95543 2.5
      vertex -14.8773 -3.57171 2.5
    endloop
  endfacet
  facet normal -0 0 -1
    outer loop
      vertex -12.3461 -1.95543 2.5
      vertex -15.1116 -2.39345 2.5
      vertex -12.4615 -0.980739 2.5
    endloop
  endfacet
  facet normal 0 0 -1
    outer loop
      vertex -15.2528 -1.20042 2.5
      vertex -12.4615 -0.980739 2.5
      vertex -15.1116 -2.39345 2.5
    endloop
  endfacet
  facet normal 0 0 -1
    outer loop
      vertex -11.5485 4.78354 2.5
      vertex -14.2663 5.5 2.5
      vertex -11.2182 5.5 2.5
    endloop
  endfacet
  facet normal 0 0 -1
    outer loop
      vertex -11.8882 3.86271 2.5
      vertex -14.2663 5.5 2.5
      vertex -11.5485 4.78354 2.5
    endloop
  endfacet
  facet normal 0 0 -1
    outer loop
      vertex -14.5512 4.72796 2.5
      vertex -11.8882 3.86271 2.5
      vertex -12.1546 2.91807 2.5
    endloop
  endfacet
  facet normal -0 0 -1
    outer loop
      vertex -12.4615 -0.980739 2.5
      vertex -15.2528 -1.20042 2.5
      vertex -12.5 0 2.5
    endloop
  endfacet
  facet normal 0 0 -1
    outer loop
      vertex -15.3 0 2.5
      vertex -12.5 0 2.5
      vertex -15.2528 -1.20042 2.5
    endloop
  endfacet
  facet normal 0 0 -1
    outer loop
      vertex -12.5 0 2.5
      vertex -15.3 0 2.5
      vertex -12.4615 0.980739 2.5
    endloop
  endfacet
  facet normal 0 -0 -1
    outer loop
      vertex -14.5512 4.72796 2.5
      vertex -12.1546 2.91807 2.5
      vertex -14.8773 3.57171 2.5
    endloop
  endfacet
  facet normal 0 0 -1
    outer loop
      vertex -11.8882 3.86271 2.5
      vertex -14.5512 4.72796 2.5
      vertex -14.2663 5.5 2.5
    endloop
  endfacet
  facet normal 0 -0 -1
    outer loop
      vertex -15.2528 1.20042 2.5
      vertex -12.4615 0.980739 2.5
      vertex -15.3 0 2.5
    endloop
  endfacet
  facet normal -0 0 -1
    outer loop
      vertex -12.1546 2.91807 2.5
      vertex -15.1116 2.39345 2.5
      vertex -14.8773 3.57171 2.5
    endloop
  endfacet
  facet normal 0 0 -1
    outer loop
      vertex -12.4615 0.980739 2.5
      vertex -15.2528 1.20042 2.5
      vertex -12.3461 1.95543 2.5
    endloop
  endfacet
  facet normal 0 0 -1
    outer loop
      vertex -12.3461 1.95543 2.5
      vertex -15.1116 2.39345 2.5
      vertex -12.1546 2.91807 2.5
    endloop
  endfacet
  facet normal 0 -0 -1
    outer loop
      vertex -15.1116 2.39345 2.5
      vertex -12.3461 1.95543 2.5
      vertex -15.2528 1.20042 2.5
    endloop
  endfacet
  facet normal 0 0 -1
    outer loop
      vertex 12.5 0 2.5
      vertex 15.3 0 2.5
      vertex 15.2528 -1.20042 2.5
    endloop
  endfacet
  facet normal 0 0 -1
    outer loop
      vertex 12.4615 -0.980739 2.5
      vertex 15.2528 -1.20042 2.5
      vertex 15.1116 -2.39345 2.5
    endloop
  endfacet
  facet normal 0 0 -1
    outer loop
      vertex 15.3 0 2.5
      vertex 12.5 0 2.5
      vertex 15.2528 1.20042 2.5
    endloop
  endfacet
  facet normal 0 0 -1
    outer loop
      vertex 12.3461 -1.95543 2.5
      vertex 15.1116 -2.39345 2.5
      vertex 14.8773 -3.57171 2.5
    endloop
  endfacet
  facet normal 0 0 -1
    outer loop
      vertex 12.4615 0.980739 2.5
      vertex 15.2528 1.20042 2.5
      vertex 12.5 0 2.5
    endloop
  endfacet
  facet normal 0 0 -1
    outer loop
      vertex 12.1546 -2.91807 2.5
      vertex 14.8773 -3.57171 2.5
      vertex 14.5512 -4.72796 2.5
    endloop
  endfacet
  facet normal -0 0 -1
    outer loop
      vertex 15.2528 1.20042 2.5
      vertex 12.4615 0.980739 2.5
      vertex 15.1116 2.39345 2.5
    endloop
  endfacet
  facet normal 0 0 -1
    outer loop
      vertex 11.8882 -3.86271 2.5
      vertex 14.5512 -4.72796 2.5
      vertex 14.2663 -5.5 2.5
    endloop
  endfacet
  facet normal 0 0 -1
    outer loop
      vertex 12.3461 1.95543 2.5
      vertex 15.1116 2.39345 2.5
      vertex 12.4615 0.980739 2.5
    endloop
  endfacet
  facet normal -0 0 -1
    outer loop
      vertex 15.1116 2.39345 2.5
      vertex 12.3461 1.95543 2.5
      vertex 14.8773 3.57171 2.5
    endloop
  endfacet
  facet normal 0 0 -1
    outer loop
      vertex 15.2528 -1.20042 2.5
      vertex 12.4615 -0.980739 2.5
      vertex 12.5 0 2.5
    endloop
  endfacet
  facet normal 0 0 -1
    outer loop
      vertex 15.1116 -2.39345 2.5
      vertex 12.3461 -1.95543 2.5
      vertex 12.4615 -0.980739 2.5
    endloop
  endfacet
  facet normal 0 0 -1
    outer loop
      vertex 14.8773 -3.57171 2.5
      vertex 12.1546 -2.91807 2.5
      vertex 12.3461 -1.95543 2.5
    endloop
  endfacet
  facet normal 0 0 -1
    outer loop
      vertex 14.5512 -4.72796 2.5
      vertex 11.8882 -3.86271 2.5
      vertex 12.1546 -2.91807 2.5
    endloop
  endfacet
  facet normal 0 0 -1
    outer loop
      vertex 14.2663 -5.5 2.5
      vertex 11.5485 -4.78354 2.5
      vertex 11.8882 -3.86271 2.5
    endloop
  endfacet
  facet normal 0 -0 -1
    outer loop
      vertex 11.5485 -4.78354 2.5
      vertex 14.2663 -5.5 2.5
      vertex 11.2182 -5.5 2.5
    endloop
  endfacet
  facet normal 0 0 -1
    outer loop
      vertex 12.1546 2.91807 2.5
      vertex 14.8773 3.57171 2.5
      vertex 12.3461 1.95543 2.5
    endloop
  endfacet
  facet normal -0 0 -1
    outer loop
      vertex 14.8773 3.57171 2.5
      vertex 12.1546 2.91807 2.5
      vertex 14.5512 4.72796 2.5
    endloop
  endfacet
  facet normal 0 0 -1
    outer loop
      vertex 11.8882 3.86271 2.5
      vertex 14.5512 4.72796 2.5
      vertex 12.1546 2.91807 2.5
    endloop
  endfacet
  facet normal -0 0 -1
    outer loop
      vertex 14.5512 4.72796 2.5
      vertex 11.8882 3.86271 2.5
      vertex 14.2663 5.5 2.5
    endloop
  endfacet
  facet normal 0 0 -1
    outer loop
      vertex 11.5485 4.78354 2.5
      vertex 14.2663 5.5 2.5
      vertex 11.8882 3.86271 2.5
    endloop
  endfacet
  facet normal -0 0 -1
    outer loop
      vertex 14.2663 5.5 2.5
      vertex 11.5485 4.78354 2.5
      vertex 11.2182 5.5 2.5
    endloop
  endfacet
  facet normal -0.908143 0.41866 0
    outer loop
      vertex -11.5485 4.78354 0
      vertex -11.2182 5.5 2.5
      vertex -11.2182 5.5 0
    endloop
  endfacet
  facet normal -0.908143 0.41866 0
    outer loop
      vertex -11.2182 5.5 2.5
      vertex -11.5485 4.78354 0
      vertex -11.5485 4.78354 2.5
    endloop
  endfacet
  facet normal -0.908143 -0.41866 0
    outer loop
      vertex -11.2182 -5.5 0
      vertex -11.5485 -4.78354 2.5
      vertex -11.5485 -4.78354 0
    endloop
  endfacet
  facet normal -0.908143 -0.41866 0
    outer loop
      vertex -11.5485 -4.78354 2.5
      vertex -11.2182 -5.5 0
      vertex -11.2182 -5.5 2.5
    endloop
  endfacet
  facet normal 0.980785 0.19509 0
    outer loop
      vertex 12.3461 1.95543 2.5
      vertex 12.1546 2.91807 0
      vertex 12.1546 2.91807 2.5
    endloop
  endfacet
  facet normal 0.980785 0.19509 0
    outer loop
      vertex 12.1546 2.91807 0
      vertex 12.3461 1.95543 2.5
      vertex 12.3461 1.95543 0
    endloop
  endfacet
  facet normal 0.962455 0.271441 0
    outer loop
      vertex 12.1546 2.91807 2.5
      vertex 11.8882 3.86271 0
      vertex 11.8882 3.86271 2.5
    endloop
  endfacet
  facet normal 0.962455 0.271441 0
    outer loop
      vertex 11.8882 3.86271 0
      vertex 12.1546 2.91807 2.5
      vertex 12.1546 2.91807 0
    endloop
  endfacet
  facet normal 0.980785 -0.19509 0
    outer loop
      vertex 12.1546 -2.91807 2.5
      vertex 12.3461 -1.95543 0
      vertex 12.3461 -1.95543 2.5
    endloop
  endfacet
  facet normal 0.980785 -0.19509 0
    outer loop
      vertex 12.3461 -1.95543 0
      vertex 12.1546 -2.91807 2.5
      vertex 12.1546 -2.91807 0
    endloop
  endfacet
  facet normal 0.908143 -0.41866 0
    outer loop
      vertex 11.2182 -5.5 2.5
      vertex 11.5485 -4.78354 0
      vertex 11.5485 -4.78354 2.5
    endloop
  endfacet
  facet normal 0.908143 -0.41866 0
    outer loop
      vertex 11.5485 -4.78354 0
      vertex 11.2182 -5.5 2.5
      vertex 11.2182 -5.5 0
    endloop
  endfacet
  facet normal 0.938191 0.346117 0
    outer loop
      vertex 11.8882 3.86271 2.5
      vertex 11.5485 4.78354 0
      vertex 11.5485 4.78354 2.5
    endloop
  endfacet
  facet normal 0.938191 0.346117 0
    outer loop
      vertex 11.5485 4.78354 0
      vertex 11.8882 3.86271 2.5
      vertex 11.8882 3.86271 0
    endloop
  endfacet
  facet normal 0.908143 0.41866 0
    outer loop
      vertex 11.5485 4.78354 2.5
      vertex 11.2182 5.5 0
      vertex 11.2182 5.5 2.5
    endloop
  endfacet
  facet normal 0.908143 0.41866 0
    outer loop
      vertex 11.2182 5.5 0
      vertex 11.5485 4.78354 2.5
      vertex 11.5485 4.78354 0
    endloop
  endfacet
  facet normal -0.962455 0.271441 0
    outer loop
      vertex -12.1546 2.91807 0
      vertex -11.8882 3.86271 2.5
      vertex -11.8882 3.86271 0
    endloop
  endfacet
  facet normal -0.962455 0.271441 0
    outer loop
      vertex -11.8882 3.86271 2.5
      vertex -12.1546 2.91807 0
      vertex -12.1546 2.91807 2.5
    endloop
  endfacet
  facet normal 0.999229 0.0392607 0
    outer loop
      vertex 12.5 0 2.5
      vertex 12.4615 0.980739 0
      vertex 12.4615 0.980739 2.5
    endloop
  endfacet
  facet normal 0.999229 0.0392607 0
    outer loop
      vertex 12.4615 0.980739 0
      vertex 12.5 0 2.5
      vertex 12.5 0 0
    endloop
  endfacet
  facet normal 0.993068 -0.117537 0
    outer loop
      vertex 12.3461 -1.95543 2.5
      vertex 12.4615 -0.980739 0
      vertex 12.4615 -0.980739 2.5
    endloop
  endfacet
  facet normal 0.993068 -0.117537 0
    outer loop
      vertex 12.4615 -0.980739 0
      vertex 12.3461 -1.95543 2.5
      vertex 12.3461 -1.95543 0
    endloop
  endfacet
  facet normal -0.962455 -0.271441 0
    outer loop
      vertex -11.8882 -3.86271 0
      vertex -12.1546 -2.91807 2.5
      vertex -12.1546 -2.91807 0
    endloop
  endfacet
  facet normal -0.962455 -0.271441 0
    outer loop
      vertex -12.1546 -2.91807 2.5
      vertex -11.8882 -3.86271 0
      vertex -11.8882 -3.86271 2.5
    endloop
  endfacet
  facet normal -0.993068 -0.117537 0
    outer loop
      vertex -12.3461 -1.95543 0
      vertex -12.4615 -0.980739 2.5
      vertex -12.4615 -0.980739 0
    endloop
  endfacet
  facet normal -0.993068 -0.117537 0
    outer loop
      vertex -12.4615 -0.980739 2.5
      vertex -12.3461 -1.95543 0
      vertex -12.3461 -1.95543 2.5
    endloop
  endfacet
  facet normal 0.993068 0.117537 0
    outer loop
      vertex 12.4615 0.980739 2.5
      vertex 12.3461 1.95543 0
      vertex 12.3461 1.95543 2.5
    endloop
  endfacet
  facet normal 0.993068 0.117537 0
    outer loop
      vertex 12.3461 1.95543 0
      vertex 12.4615 0.980739 2.5
      vertex 12.4615 0.980739 0
    endloop
  endfacet
  facet normal -0.999229 0.0392607 0
    outer loop
      vertex -12.5 0 0
      vertex -12.4615 0.980739 2.5
      vertex -12.4615 0.980739 0
    endloop
  endfacet
  facet normal -0.999229 0.0392607 0
    outer loop
      vertex -12.4615 0.980739 2.5
      vertex -12.5 0 0
      vertex -12.5 0 2.5
    endloop
  endfacet
  facet normal -0.980785 0.19509 0
    outer loop
      vertex -12.3461 1.95543 0
      vertex -12.1546 2.91807 2.5
      vertex -12.1546 2.91807 0
    endloop
  endfacet
  facet normal -0.980785 0.19509 0
    outer loop
      vertex -12.1546 2.91807 2.5
      vertex -12.3461 1.95543 0
      vertex -12.3461 1.95543 2.5
    endloop
  endfacet
  facet normal -0.938191 0.346117 0
    outer loop
      vertex -11.8882 3.86271 0
      vertex -11.5485 4.78354 2.5
      vertex -11.5485 4.78354 0
    endloop
  endfacet
  facet normal -0.938191 0.346117 0
    outer loop
      vertex -11.5485 4.78354 2.5
      vertex -11.8882 3.86271 0
      vertex -11.8882 3.86271 2.5
    endloop
  endfacet
  facet normal 0.999229 -0.0392607 0
    outer loop
      vertex 12.4615 -0.980739 2.5
      vertex 12.5 0 0
      vertex 12.5 0 2.5
    endloop
  endfacet
  facet normal 0.999229 -0.0392607 0
    outer loop
      vertex 12.5 0 0
      vertex 12.4615 -0.980739 2.5
      vertex 12.4615 -0.980739 0
    endloop
  endfacet
  facet normal 0.938191 -0.346117 0
    outer loop
      vertex 11.5485 -4.78354 2.5
      vertex 11.8882 -3.86271 0
      vertex 11.8882 -3.86271 2.5
    endloop
  endfacet
  facet normal 0.938191 -0.346117 0
    outer loop
      vertex 11.8882 -3.86271 0
      vertex 11.5485 -4.78354 2.5
      vertex 11.5485 -4.78354 0
    endloop
  endfacet
  facet normal -0.980785 -0.19509 0
    outer loop
      vertex -12.1546 -2.91807 0
      vertex -12.3461 -1.95543 2.5
      vertex -12.3461 -1.95543 0
    endloop
  endfacet
  facet normal -0.980785 -0.19509 0
    outer loop
      vertex -12.3461 -1.95543 2.5
      vertex -12.1546 -2.91807 0
      vertex -12.1546 -2.91807 2.5
    endloop
  endfacet
  facet normal -0.999229 -0.0392607 0
    outer loop
      vertex -12.4615 -0.980739 0
      vertex -12.5 0 2.5
      vertex -12.5 0 0
    endloop
  endfacet
  facet normal -0.999229 -0.0392607 0
    outer loop
      vertex -12.5 0 2.5
      vertex -12.4615 -0.980739 0
      vertex -12.4615 -0.980739 2.5
    endloop
  endfacet
  facet normal -0.938191 -0.346117 0
    outer loop
      vertex -11.5485 -4.78354 0
      vertex -11.8882 -3.86271 2.5
      vertex -11.8882 -3.86271 0
    endloop
  endfacet
  facet normal -0.938191 -0.346117 0
    outer loop
      vertex -11.8882 -3.86271 2.5
      vertex -11.5485 -4.78354 0
      vertex -11.5485 -4.78354 2.5
    endloop
  endfacet
  facet normal -0.993068 0.117537 0
    outer loop
      vertex -12.4615 0.980739 0
      vertex -12.3461 1.95543 2.5
      vertex -12.3461 1.95543 0
    endloop
  endfacet
  facet normal -0.993068 0.117537 0
    outer loop
      vertex -12.3461 1.95543 2.5
      vertex -12.4615 0.980739 0
      vertex -12.4615 0.980739 2.5
    endloop
  endfacet
  facet normal 0.962455 -0.271441 0
    outer loop
      vertex 11.8882 -3.86271 2.5
      vertex 12.1546 -2.91807 0
      vertex 12.1546 -2.91807 2.5
    endloop
  endfacet
  facet normal 0.962455 -0.271441 0
    outer loop
      vertex 12.1546 -2.91807 0
      vertex 11.8882 -3.86271 2.5
      vertex 11.8882 -3.86271 0
    endloop
  endfacet
endsolid OpenSCAD_Model
